<svg id="visual" viewBox="0 0 1920 1000" width="1920" height="1000" xmlns="http://www.w3.org/2000/svg" xmlns:xlink="http://www.w3.org/1999/xlink" version="1.1"><rect x="0" y="0" width="1920" height="1000" fill="#ffffff"></rect><path d="M954 1000L938.7 966.7C923.3 933.3 892.7 866.7 875.3 800C858 733.3 854 666.7 886.2 600C918.3 533.3 986.7 466.7 1014.7 400C1042.7 333.3 1030.3 266.7 1017.8 200C1005.3 133.3 992.7 66.7 986.3 33.3L980 0L1920 0L1920 33.3C1920 66.7 1920 133.3 1920 200C1920 266.7 1920 333.3 1920 400C1920 466.7 1920 533.3 1920 600C1920 666.7 1920 733.3 1920 800C1920 866.7 1920 933.3 1920 966.7L1920 1000Z" fill="#212529" stroke-linecap="round" stroke-linejoin="miter"></path></svg>