<svg id="visual" viewBox="0 0 1920 1000" width="1920" height="1000" xmlns="http://www.w3.org/2000/svg" xmlns:xlink="http://www.w3.org/1999/xlink" version="1.1"><rect x="0" y="0" width="1920" height="1000" fill="#ffffff"></rect><path d="M955 1000L918.7 958.3C882.3 916.7 809.7 833.3 818.3 750C827 666.7 917 583.3 981 500C1045 416.7 1083 333.3 1083.3 250C1083.7 166.7 1046.3 83.3 1027.7 41.7L1009 0L1920 0L1920 41.7C1920 83.3 1920 166.7 1920 250C1920 333.3 1920 416.7 1920 500C1920 583.3 1920 666.7 1920 750C1920 833.3 1920 916.7 1920 958.3L1920 1000Z" fill="#000000" stroke-linecap="round" stroke-linejoin="miter"></path></svg>