<svg id="visual" viewBox="0 0 1920 1000" width="1920" height="1000" xmlns="http://www.w3.org/2000/svg" xmlns:xlink="http://www.w3.org/1999/xlink" version="1.1"><rect x="0" y="0" width="1920" height="1000" fill="#ffffff"></rect><path d="M977 1000L1009 966.7C1041 933.3 1105 866.7 1157.7 800C1210.3 733.3 1251.7 666.7 1274.3 600C1297 533.3 1301 466.7 1247.5 400C1194 333.3 1083 266.7 974.5 200C866 133.3 760 66.7 707 33.3L654 0L1920 0L1920 33.3C1920 66.7 1920 133.3 1920 200C1920 266.7 1920 333.3 1920 400C1920 466.7 1920 533.3 1920 600C1920 666.7 1920 733.3 1920 800C1920 866.7 1920 933.3 1920 966.7L1920 1000Z" fill="#2e2e2f" stroke-linecap="round" stroke-linejoin="miter"></path></svg>