<svg id="visual" viewBox="0 0 1400 350" width="1400" height="350" xmlns="http://www.w3.org/2000/svg" xmlns:xlink="http://www.w3.org/1999/xlink" version="1.1"><rect x="0" y="0" width="1400" height="350" fill="#ffffff"></rect><path d="M0 119L33.3 114.7C66.7 110.3 133.3 101.7 200 102C266.7 102.3 333.3 111.7 400 113C466.7 114.3 533.3 107.7 600 96.8C666.7 86 733.3 71 800 73.3C866.7 75.7 933.3 95.3 1000 111.8C1066.7 128.3 1133.3 141.7 1200 139.3C1266.7 137 1333.3 119 1366.7 110L1400 101L1400 0L1366.7 0C1333.3 0 1266.7 0 1200 0C1133.3 0 1066.7 0 1000 0C933.3 0 866.7 0 800 0C733.3 0 666.7 0 600 0C533.3 0 466.7 0 400 0C333.3 0 266.7 0 200 0C133.3 0 66.7 0 33.3 0L0 0Z" fill="#2e2e2f" stroke-linecap="round" stroke-linejoin="miter"></path></svg>